<svg width="36" height="36" viewBox="0 0 36 36" fill="none" xmlns="http://www.w3.org/2000/svg">
<circle cx="18" cy="18" r="17.5" fill="white" stroke="black"/>
<path d="M15.7436 27V15.096H19.2716V27H15.7436ZM17.4956 13.344C16.9036 13.344 16.4236 13.176 16.0556 12.84C15.6876 12.504 15.5036 12.056 15.5036 11.496C15.5036 10.936 15.6876 10.488 16.0556 10.152C16.4236 9.816 16.9036 9.648 17.4956 9.648C18.0876 9.648 18.5676 9.816 18.9356 10.152C19.3036 10.488 19.4876 10.936 19.4876 11.496C19.4876 12.056 19.3036 12.504 18.9356 12.84C18.5676 13.176 18.0876 13.344 17.4956 13.344Z" fill="black"/>
</svg>
