<svg width="1080" height="1080" viewBox="0 0 1080 1080" fill="none" xmlns="http://www.w3.org/2000/svg">
<g clip-path="url(#clip0_127_15)">
<circle cx="540" cy="540" r="540" fill="#0E47CB"/>
<path d="M249.7 649.3C215.7 649.3 189.7 639.2 171.7 619C153.7 598.6 144.7 570.8 144.7 535.6C144.7 512.4 149.4 492.2 158.8 475C168.4 457.6 181.5 444.2 198.1 434.8C214.7 425.4 233.5 420.7 254.5 420.7C263.3 420.7 271.8 421.3 280 422.5C288.2 423.5 297.9 424.9 309.1 426.7C317.5 428.1 322.1 428.8 322.9 428.8L319.6 490.6H292L282.7 447.7C280.5 445.5 276.7 443.7 271.3 442.3C265.9 440.9 259 440.2 250.6 440.2C233.6 440.2 219.9 448.1 209.5 463.9C199.3 479.5 194.2 502.2 194.2 532C194.2 560.8 199.1 584.3 208.9 602.5C218.7 620.7 233 629.8 251.8 629.8C260.8 629.8 267.7 629 272.5 627.4C277.5 625.6 281.7 623.1 285.1 619.9L298.3 589L323.5 591.4L317.5 637.9C313.3 638.3 309.1 639.1 304.9 640.3C300.9 641.3 298.4 641.9 297.4 642.1C289.4 644.3 281.9 646 274.9 647.2C268.1 648.6 259.7 649.3 249.7 649.3ZM489.161 564.1H367.061V535.9H489.161V564.1ZM558.119 445.6L534.119 441.7V423.1H694.019L697.919 473.5H676.919L667.019 443.8L602.219 441.1V521.8L643.919 520.9L648.719 496.3H667.919V568.9H648.719L643.919 543.1L602.219 542.2V626.8L674.819 623.2L692.219 584.8L714.719 591.1L706.919 646H534.419V628L558.119 625V445.6ZM834.801 648.4C804.401 648.4 781.801 640.8 767.001 625.6C752.201 610.4 744.801 586.5 744.801 553.9V445.6L725.001 441.7V423.1H815.601V441.7L790.101 445.9V557.8C790.101 605.4 807.001 629.2 840.801 629.2C857.401 629.2 869.701 623.1 877.701 610.9C885.701 598.5 889.701 581.2 889.701 559V445.9L863.901 441.7V423.1H938.901V441.7L918.501 445.6V556.6C918.501 587.8 910.901 610.9 895.701 625.9C880.701 640.9 860.401 648.4 834.801 648.4Z" fill="white"/>
<path d="M306.348 298L312.915 318.211H334.166L316.974 330.701L323.54 350.912L306.348 338.421L289.156 350.912L295.723 330.701L278.531 318.211H299.781L306.348 298Z" fill="#FFCC00"/>
<path d="M518.751 511.099L525.318 531.31H546.568L529.376 543.801L535.943 564.011L518.751 551.52L501.559 564.011L508.126 543.801L490.934 531.31H512.184L518.751 511.099Z" fill="#FFCC00"/>
<path d="M306.348 723.502L312.915 743.713H334.166L316.974 756.204L323.54 776.414L306.348 763.923L289.156 776.414L295.723 756.204L278.531 743.713H299.781L306.348 723.502Z" fill="#FFCC00"/>
<path d="M93.2489 511.099L99.8157 531.31H121.066L103.874 543.801L110.441 564.011L93.2489 551.52L76.0568 564.011L82.6236 543.801L65.4315 531.31H86.6821L93.2489 511.099Z" fill="#FFCC00"/>
<path d="M127.418 425.068L127.643 425.76H146.54L131.84 436.442L131.252 436.869L131.477 437.56L137.092 454.844L122.39 444.163L121.802 443.735L121.214 444.163L106.511 454.843L112.127 437.56L112.351 436.869L111.764 436.442L97.0625 425.76H115.961L116.186 425.068L121.802 407.785L127.418 425.068Z" fill="#EB6259" stroke="white" stroke-width="2"/>
<path d="M200.75 326.244L207.093 345.762L227.616 345.763H230.693L228.204 347.572L211.6 359.636L217.941 379.155L218.893 382.082L216.403 380.273L199.799 368.211L183.194 380.273L180.705 382.082L181.655 379.155L187.997 359.636L171.394 347.572L168.904 345.763H171.981L192.504 345.762L198.848 326.244L199.799 323.317L200.75 326.244Z" fill="#5C65F0" stroke="white" stroke-width="2"/>
<path d="M490.895 404.55L484.328 424.759L463.077 424.76L480.269 437.251L473.703 457.461L490.895 444.972L508.087 457.461L501.521 437.251L518.712 424.76L497.462 424.759L490.895 404.55Z" fill="#FFCC00"/>
<path d="M412.898 326.553L406.33 346.762L385.08 346.763L402.272 359.254L395.706 379.464L412.898 366.975L430.09 379.464L423.524 359.254L440.715 346.763L419.465 346.762L412.898 326.553Z" fill="#FFCC00"/>
<path d="M200.495 695.646L193.928 715.856L172.678 715.857L189.869 728.348L183.303 748.558L200.495 736.068L217.687 748.558L211.121 728.348L228.312 715.857L207.062 715.856L200.495 695.646Z" fill="#FFCC00"/>
<path d="M122.498 617.649L115.931 637.859L94.6805 637.859L111.872 650.351L105.306 670.561L122.498 658.071L139.69 670.561L133.124 650.351L150.315 637.859L129.065 637.859L122.498 617.649Z" fill="#FFCC00"/>
<path d="M412.202 695.646L418.769 715.856L440.019 715.857L422.828 728.348L429.394 748.558L412.202 736.068L395.009 748.558L401.575 728.348L384.384 715.857L405.634 715.856L412.202 695.646Z" fill="#FFCC00"/>
<path d="M490.198 617.649L496.766 637.859L518.016 637.859L500.825 650.351L507.39 670.561L490.198 658.071L473.006 670.561L479.572 650.351L462.381 637.859L483.631 637.859L490.198 617.649Z" fill="#FFCC00"/>
</g>
<defs>
<clipPath id="clip0_127_15">
<rect width="1080" height="1080" fill="white"/>
</clipPath>
</defs>
</svg>
